<?xml version="1.0" encoding="iso-8859-1"?>
<!-- Uploaded to: SVG Repo, www.svgrepo.com, Generator: SVG Repo Mixer Tools -->
<svg fill="#000000" height="800px" width="800px" version="1.1" id="Layer_1" xmlns="http://www.w3.org/2000/svg" xmlns:xlink="http://www.w3.org/1999/xlink" 
	 viewBox="0 0 512 512" xml:space="preserve">
<g>
	<g>
		<path d="M509.705,233.902C490.025,115.786,338.939,10.713,332.514,6.297c-3.983-2.738-9.413-2.095-12.635,1.536
			c-2.048,2.3-32.785,37.648-50.651,99.859C161.905,25.126,14.777,42.372,8.427,43.164C3.617,43.766,0,47.857,0,52.709
			C0,303.853,114.899,362.165,167.112,375.69c-23.523,17.905-49.636,42.111-78.159,74.709c-2.442,2.79-2.987,6.745-1.512,10.155
			c1.475,3.41,4.857,5.665,8.567,5.796c0.836,0.028,21.437,1.024,112.861,28.455c27.957,8.389,51.884,12.588,72.447,12.588
			c22.856,0,41.541-5.195,56.937-15.604c25.59-17.299,40.597-48.739,45.834-95.531c11.839,2.461,19.627,2.388,19.934,2.388h0.005
			h0.005c0.04,0,0.077,0.174,0.117,0.174c0.493-0.007,0.987,0.044,1.47-0.04c0.249-0.04,0.484-0.073,0.728-0.134
			c0.24-0.059,0.484-0.075,0.719-0.155c0.024-0.007,0.096-0.021,0.197-0.056c0.021-0.007,0.042-0.009,0.066-0.016
			C413.467,396.258,529.625,353.409,509.705,233.902z M19.286,61.497c33.189-2.381,156.449-5.613,243.974,65.994
			c0.268,0.219,0.563,0.375,0.845,0.559c-7.248,33.339-10.334,73.017-4.293,118.319c4.018,30.125,12.137,54.291,22.557,73.699
			C167.187,286.075,76.858,107.958,75.942,106.119c-2.386-4.753-8.163-6.693-12.908-4.298c-4.753,2.377-6.679,8.149-4.302,12.903
			c3.682,7.361,84.549,166.881,196.748,215.951c-18.152,4.138-40.43,12.865-66.503,29.648
			C164.946,358.135,22.288,333.571,19.286,61.497z M327.479,475.857c-23.748,16.045-60.752,16.233-113.086,0.517
			c-52.616-15.782-82.583-23.062-99.202-26.416c30.014-32.609,56.778-55.162,80.054-70.662c1.724-0.538,3.229-1.531,4.382-2.86
			c61.393-39.3,97.405-28.92,103.183-26.809c3.959,4.488,8.041,8.57,12.196,12.281c-84.589,10.578-112.098,81.057-112.384,81.823
			c-1.86,4.979,0.657,10.521,5.627,12.391c1.118,0.413,2.255,0.611,3.382,0.611c3.889,0,7.562-2.377,9.009-6.238
			c0.263-0.714,27.543-70.719,116.045-70.719c0.881,0,1.717-0.155,2.527-0.378c9.061,5.218,17.938,9.046,26.083,11.858
			C361.018,433.83,348.648,461.547,327.479,475.857z M416.337,373.668c20.775-146.6-49.516-245.374-52.635-249.667
			c-3.119-4.288-9.131-5.228-13.424-2.123c-4.293,3.119-5.251,9.131-2.142,13.433c0.728,1.009,71.311,100.63,47.915,243.805
			c-9.981-1.264-28.112-4.998-47.341-16.092c-38.769-22.367-62.264-62.471-69.826-119.192
			c-15.406-115.58,33.415-193.664,50.052-216.388c30.409,22.555,145.815,113.744,161.795,209.615
			C504.405,319.109,445.499,359.144,416.337,373.668z"/>
	</g>
</g>
</svg>